<mxfile host="app.diagrams.net" agent="Mozilla/5.0 (Windows NT 10.0; Win64; x64) AppleWebKit/537.36 (KHTML, like Gecko) Chrome/132.0.0.0 Safari/537.36" version="26.0.16">
  <diagram name="Page-1" id="10a91c8b-09ff-31b1-d368-03940ed4cc9e">
    <mxGraphModel dx="1221" dy="725" grid="1" gridSize="10" guides="1" tooltips="1" connect="1" arrows="1" fold="1" page="1" pageScale="1" pageWidth="1100" pageHeight="850" background="none" math="0" shadow="0">
      <root>
        <mxCell id="0" />
        <mxCell id="1" parent="0" />
        <mxCell id="62893188c0fa7362-1" value="網站" style="whiteSpace=wrap;html=1;rounded=1;shadow=1;labelBackgroundColor=none;strokeWidth=1;fontFamily=Noto Sans;fontSize=13;align=center;fillColor=#f8cecc;strokeColor=#b85450;fontSource=https%3A%2F%2Ffonts.googleapis.com%2Fcss2%3Ffamily%3DNoto%2BSans%2BTC%3Awght%40100..900%26display%3Dswap;fontStyle=1;verticalAlign=middle;" parent="1" vertex="1">
          <mxGeometry x="360" y="30" width="120" height="60" as="geometry" />
        </mxCell>
        <mxCell id="62893188c0fa7362-2" value="前台" style="whiteSpace=wrap;html=1;rounded=1;shadow=1;labelBackgroundColor=none;strokeWidth=1;fontFamily=Noto Sans;fontSize=13;align=center;fillColor=#ffe6cc;strokeColor=#d79b00;fontSource=https%3A%2F%2Ffonts.googleapis.com%2Fcss2%3Ffamily%3DNoto%2BSans%2BTC%3Awght%40100..900%26display%3Dswap;fontStyle=1;verticalAlign=middle;" parent="1" vertex="1">
          <mxGeometry x="200" y="140" width="120" height="60" as="geometry" />
        </mxCell>
        <mxCell id="62893188c0fa7362-3" value="後台" style="whiteSpace=wrap;html=1;rounded=1;shadow=1;labelBackgroundColor=none;strokeWidth=1;fontFamily=Noto Sans;fontSize=13;align=center;fillColor=#ffe6cc;strokeColor=#d79b00;fontSource=https%3A%2F%2Ffonts.googleapis.com%2Fcss2%3Ffamily%3DNoto%2BSans%2BTC%3Awght%40100..900%26display%3Dswap;fontStyle=1;verticalAlign=middle;" parent="1" vertex="1">
          <mxGeometry x="660" y="240" width="120" height="60" as="geometry" />
        </mxCell>
        <mxCell id="62893188c0fa7362-5" value="" style="rounded=0;html=1;labelBackgroundColor=none;startArrow=none;startFill=0;startSize=5;endArrow=none;endFill=0;endSize=5;jettySize=auto;orthogonalLoop=1;strokeWidth=1;fontFamily=Noto Sans;fontSize=13;exitX=0.5;exitY=1;exitDx=0;exitDy=0;fontSource=https%3A%2F%2Ffonts.googleapis.com%2Fcss2%3Ffamily%3DNoto%2BSans%2BTC%3Awght%40100..900%26display%3Dswap;fontStyle=1;verticalAlign=middle;" parent="1" source="62893188c0fa7362-1" target="62893188c0fa7362-2" edge="1">
          <mxGeometry x="-0.3528" y="-11" relative="1" as="geometry">
            <mxPoint as="offset" />
          </mxGeometry>
        </mxCell>
        <mxCell id="981FmP7xmJGjgX_GR1k2-1" value="首頁(麵屋總結)" style="whiteSpace=wrap;html=1;rounded=0;shadow=1;labelBackgroundColor=none;strokeWidth=2;fontFamily=Noto Sans;fontSize=13;align=center;fillColor=#fff2cc;strokeColor=#d6b656;fontSource=https%3A%2F%2Ffonts.googleapis.com%2Fcss2%3Ffamily%3DNoto%2BSans%2BTC%3Awght%40100..900%26display%3Dswap;fontStyle=1;verticalAlign=middle;" parent="1" vertex="1">
          <mxGeometry x="40" y="240" width="120" height="60" as="geometry" />
        </mxCell>
        <mxCell id="981FmP7xmJGjgX_GR1k2-5" value="會員信息" style="whiteSpace=wrap;html=1;rounded=0;shadow=1;labelBackgroundColor=none;strokeWidth=2;fontFamily=Noto Sans;fontSize=13;align=center;fontSource=https%3A%2F%2Ffonts.googleapis.com%2Fcss2%3Ffamily%3DNoto%2BSans%2BTC%3Awght%40100..900%26display%3Dswap;fontStyle=1;verticalAlign=middle;" parent="1" vertex="1">
          <mxGeometry x="280" y="350" width="120" height="60" as="geometry" />
        </mxCell>
        <mxCell id="981FmP7xmJGjgX_GR1k2-7" value="" style="endArrow=none;html=1;rounded=0;exitX=0.5;exitY=0;exitDx=0;exitDy=0;entryX=0.5;entryY=1;entryDx=0;entryDy=0;fontFamily=Noto Sans;fontSource=https%3A%2F%2Ffonts.googleapis.com%2Fcss2%3Ffamily%3DNoto%2BSans%2BTC%3Awght%40100..900%26display%3Dswap;fontStyle=1;verticalAlign=middle;fontSize=13;" parent="1" source="981FmP7xmJGjgX_GR1k2-1" target="62893188c0fa7362-2" edge="1">
          <mxGeometry width="50" height="50" relative="1" as="geometry">
            <mxPoint x="20" y="230" as="sourcePoint" />
            <mxPoint x="70" y="180" as="targetPoint" />
          </mxGeometry>
        </mxCell>
        <mxCell id="981FmP7xmJGjgX_GR1k2-8" value="" style="endArrow=none;html=1;rounded=0;exitX=0.5;exitY=0;exitDx=0;exitDy=0;entryX=0.5;entryY=1;entryDx=0;entryDy=0;fontFamily=Noto Sans;fontSource=https%3A%2F%2Ffonts.googleapis.com%2Fcss2%3Ffamily%3DNoto%2BSans%2BTC%3Awght%40100..900%26display%3Dswap;fontStyle=1;verticalAlign=middle;fontSize=13;" parent="1" source="981FmP7xmJGjgX_GR1k2-5" target="981FmP7xmJGjgX_GR1k2-13" edge="1">
          <mxGeometry width="50" height="50" relative="1" as="geometry">
            <mxPoint x="210" y="260" as="sourcePoint" />
            <mxPoint x="420" y="300" as="targetPoint" />
          </mxGeometry>
        </mxCell>
        <mxCell id="981FmP7xmJGjgX_GR1k2-11" value="&lt;span&gt;關於我們&lt;/span&gt;" style="whiteSpace=wrap;html=1;rounded=0;shadow=1;labelBackgroundColor=none;strokeWidth=2;fontFamily=Noto Sans;fontSize=13;align=center;fontSource=https%3A%2F%2Ffonts.googleapis.com%2Fcss2%3Ffamily%3DNoto%2BSans%2BTC%3Awght%40100..900%26display%3Dswap;fontStyle=1;verticalAlign=middle;fillColor=#f5f5f5;strokeColor=#666666;gradientColor=#b3b3b3;" parent="1" vertex="1">
          <mxGeometry x="200" y="240" width="120" height="60" as="geometry" />
        </mxCell>
        <mxCell id="981FmP7xmJGjgX_GR1k2-12" value="" style="endArrow=none;html=1;rounded=0;entryX=0.5;entryY=1;entryDx=0;entryDy=0;exitX=0.5;exitY=0;exitDx=0;exitDy=0;fontFamily=Noto Sans;fontSource=https%3A%2F%2Ffonts.googleapis.com%2Fcss2%3Ffamily%3DNoto%2BSans%2BTC%3Awght%40100..900%26display%3Dswap;fontStyle=1;verticalAlign=middle;fontSize=13;" parent="1" source="981FmP7xmJGjgX_GR1k2-11" target="62893188c0fa7362-2" edge="1">
          <mxGeometry width="50" height="50" relative="1" as="geometry">
            <mxPoint x="310" y="370" as="sourcePoint" />
            <mxPoint x="360" y="320" as="targetPoint" />
          </mxGeometry>
        </mxCell>
        <mxCell id="981FmP7xmJGjgX_GR1k2-13" value="會員登入/註冊" style="whiteSpace=wrap;html=1;rounded=0;shadow=1;labelBackgroundColor=none;strokeWidth=2;fontFamily=Noto Sans;fontSize=13;align=center;fillColor=#fff2cc;strokeColor=#d6b656;fontSource=https%3A%2F%2Ffonts.googleapis.com%2Fcss2%3Ffamily%3DNoto%2BSans%2BTC%3Awght%40100..900%26display%3Dswap;fontStyle=1;verticalAlign=middle;" parent="1" vertex="1">
          <mxGeometry x="360" y="240" width="120" height="60" as="geometry" />
        </mxCell>
        <mxCell id="981FmP7xmJGjgX_GR1k2-14" value="" style="endArrow=none;html=1;rounded=0;entryX=0.5;entryY=1;entryDx=0;entryDy=0;exitX=0.5;exitY=0;exitDx=0;exitDy=0;fontFamily=Noto Sans;fontSource=https%3A%2F%2Ffonts.googleapis.com%2Fcss2%3Ffamily%3DNoto%2BSans%2BTC%3Awght%40100..900%26display%3Dswap;fontStyle=1;verticalAlign=middle;fontSize=13;" parent="1" source="981FmP7xmJGjgX_GR1k2-13" target="62893188c0fa7362-2" edge="1">
          <mxGeometry width="50" height="50" relative="1" as="geometry">
            <mxPoint x="420" y="240" as="sourcePoint" />
            <mxPoint x="510" y="210" as="targetPoint" />
          </mxGeometry>
        </mxCell>
        <mxCell id="981FmP7xmJGjgX_GR1k2-17" value="查看麵屋" style="whiteSpace=wrap;html=1;rounded=0;shadow=1;labelBackgroundColor=none;strokeWidth=2;fontFamily=Noto Sans;fontSize=13;align=center;fontSource=https%3A%2F%2Ffonts.googleapis.com%2Fcss2%3Ffamily%3DNoto%2BSans%2BTC%3Awght%40100..900%26display%3Dswap;fontStyle=1;verticalAlign=middle;" parent="1" vertex="1">
          <mxGeometry x="40" y="350" width="120" height="60" as="geometry" />
        </mxCell>
        <mxCell id="981FmP7xmJGjgX_GR1k2-18" value="" style="endArrow=none;html=1;rounded=0;entryX=0.5;entryY=1;entryDx=0;entryDy=0;exitX=0.5;exitY=0;exitDx=0;exitDy=0;fontFamily=Noto Sans;fontSource=https%3A%2F%2Ffonts.googleapis.com%2Fcss2%3Ffamily%3DNoto%2BSans%2BTC%3Awght%40100..900%26display%3Dswap;fontStyle=1;verticalAlign=middle;fontSize=13;" parent="1" source="981FmP7xmJGjgX_GR1k2-17" target="981FmP7xmJGjgX_GR1k2-1" edge="1">
          <mxGeometry width="50" height="50" relative="1" as="geometry">
            <mxPoint x="170" y="350" as="sourcePoint" />
            <mxPoint x="220" y="300" as="targetPoint" />
          </mxGeometry>
        </mxCell>
        <mxCell id="981FmP7xmJGjgX_GR1k2-24" value="" style="endArrow=classic;html=1;rounded=0;exitX=1;exitY=0.5;exitDx=0;exitDy=0;entryX=0;entryY=0.5;entryDx=0;entryDy=0;fontFamily=Noto Sans;fontSource=https%3A%2F%2Ffonts.googleapis.com%2Fcss2%3Ffamily%3DNoto%2BSans%2BTC%3Awght%40100..900%26display%3Dswap;fontStyle=1;verticalAlign=middle;fontSize=13;" parent="1" source="981FmP7xmJGjgX_GR1k2-13" target="62893188c0fa7362-3" edge="1">
          <mxGeometry width="50" height="50" relative="1" as="geometry">
            <mxPoint x="520" y="400" as="sourcePoint" />
            <mxPoint x="570" y="350" as="targetPoint" />
          </mxGeometry>
        </mxCell>
        <mxCell id="981FmP7xmJGjgX_GR1k2-25" value="" style="endArrow=none;html=1;rounded=0;entryX=0.5;entryY=1;entryDx=0;entryDy=0;exitX=0.5;exitY=0;exitDx=0;exitDy=0;fontFamily=Noto Sans;fontSource=https%3A%2F%2Ffonts.googleapis.com%2Fcss2%3Ffamily%3DNoto%2BSans%2BTC%3Awght%40100..900%26display%3Dswap;fontStyle=1;verticalAlign=middle;fontSize=13;" parent="1" source="981FmP7xmJGjgX_GR1k2-26" target="62893188c0fa7362-3" edge="1">
          <mxGeometry width="50" height="50" relative="1" as="geometry">
            <mxPoint x="620" y="350" as="sourcePoint" />
            <mxPoint x="670" y="350" as="targetPoint" />
          </mxGeometry>
        </mxCell>
        <mxCell id="981FmP7xmJGjgX_GR1k2-26" value="管理員後台" style="whiteSpace=wrap;html=1;rounded=0;shadow=1;labelBackgroundColor=none;strokeWidth=2;fontFamily=Noto Sans;fontSize=13;align=center;fillColor=#fff2cc;strokeColor=#d6b656;fontSource=https%3A%2F%2Ffonts.googleapis.com%2Fcss2%3Ffamily%3DNoto%2BSans%2BTC%3Awght%40100..900%26display%3Dswap;fontStyle=1;verticalAlign=middle;" parent="1" vertex="1">
          <mxGeometry x="660" y="350" width="120" height="60" as="geometry" />
        </mxCell>
        <mxCell id="981FmP7xmJGjgX_GR1k2-27" value="" style="endArrow=none;html=1;rounded=0;entryX=0.5;entryY=1;entryDx=0;entryDy=0;exitX=0.5;exitY=0;exitDx=0;exitDy=0;fontFamily=Noto Sans;fontSource=https%3A%2F%2Ffonts.googleapis.com%2Fcss2%3Ffamily%3DNoto%2BSans%2BTC%3Awght%40100..900%26display%3Dswap;fontStyle=1;verticalAlign=middle;fontSize=13;" parent="1" source="981FmP7xmJGjgX_GR1k2-28" target="981FmP7xmJGjgX_GR1k2-26" edge="1">
          <mxGeometry width="50" height="50" relative="1" as="geometry">
            <mxPoint x="550" y="440" as="sourcePoint" />
            <mxPoint x="605" y="440" as="targetPoint" />
          </mxGeometry>
        </mxCell>
        <mxCell id="981FmP7xmJGjgX_GR1k2-28" value="檢視/刪除評價" style="whiteSpace=wrap;html=1;rounded=0;shadow=1;labelBackgroundColor=none;strokeWidth=2;fontFamily=Noto Sans;fontSize=13;align=center;fontSource=https%3A%2F%2Ffonts.googleapis.com%2Fcss2%3Ffamily%3DNoto%2BSans%2BTC%3Awght%40100..900%26display%3Dswap;fontStyle=1;verticalAlign=middle;" parent="1" vertex="1">
          <mxGeometry x="570" y="460" width="120" height="60" as="geometry" />
        </mxCell>
        <mxCell id="981FmP7xmJGjgX_GR1k2-29" value="新增/修改麵屋" style="whiteSpace=wrap;html=1;rounded=0;shadow=1;labelBackgroundColor=none;strokeWidth=2;fontFamily=Noto Sans;fontSize=13;align=center;fontSource=https%3A%2F%2Ffonts.googleapis.com%2Fcss2%3Ffamily%3DNoto%2BSans%2BTC%3Awght%40100..900%26display%3Dswap;fontStyle=1;verticalAlign=middle;" parent="1" vertex="1">
          <mxGeometry x="750" y="460" width="120" height="60" as="geometry" />
        </mxCell>
        <mxCell id="981FmP7xmJGjgX_GR1k2-30" value="" style="endArrow=none;html=1;rounded=0;exitX=0.5;exitY=0;exitDx=0;exitDy=0;entryX=0.5;entryY=1;entryDx=0;entryDy=0;fontFamily=Noto Sans;fontSource=https%3A%2F%2Ffonts.googleapis.com%2Fcss2%3Ffamily%3DNoto%2BSans%2BTC%3Awght%40100..900%26display%3Dswap;fontStyle=1;verticalAlign=middle;fontSize=13;" parent="1" source="981FmP7xmJGjgX_GR1k2-29" target="981FmP7xmJGjgX_GR1k2-26" edge="1">
          <mxGeometry width="50" height="50" relative="1" as="geometry">
            <mxPoint x="620" y="400" as="sourcePoint" />
            <mxPoint x="740" y="430" as="targetPoint" />
          </mxGeometry>
        </mxCell>
        <mxCell id="981FmP7xmJGjgX_GR1k2-31" value="填寫麵屋評價" style="whiteSpace=wrap;html=1;rounded=0;shadow=1;labelBackgroundColor=none;strokeWidth=2;fontFamily=Noto Sans;fontSize=13;align=center;fontSource=https%3A%2F%2Ffonts.googleapis.com%2Fcss2%3Ffamily%3DNoto%2BSans%2BTC%3Awght%40100..900%26display%3Dswap;fontStyle=1;verticalAlign=middle;" parent="1" vertex="1">
          <mxGeometry x="440" y="350" width="120" height="60" as="geometry" />
        </mxCell>
        <mxCell id="981FmP7xmJGjgX_GR1k2-32" value="" style="endArrow=none;html=1;rounded=0;exitX=0.5;exitY=0;exitDx=0;exitDy=0;fontFamily=Noto Sans;fontSource=https%3A%2F%2Ffonts.googleapis.com%2Fcss2%3Ffamily%3DNoto%2BSans%2BTC%3Awght%40100..900%26display%3Dswap;fontStyle=1;verticalAlign=middle;fontSize=13;entryX=0.5;entryY=1;entryDx=0;entryDy=0;" parent="1" source="981FmP7xmJGjgX_GR1k2-31" target="981FmP7xmJGjgX_GR1k2-13" edge="1">
          <mxGeometry width="50" height="50" relative="1" as="geometry">
            <mxPoint x="330" y="360" as="sourcePoint" />
            <mxPoint x="450" y="320" as="targetPoint" />
          </mxGeometry>
        </mxCell>
      </root>
    </mxGraphModel>
  </diagram>
</mxfile>
